<svg xmlns="http://www.w3.org/2000/svg" viewBox="0 0 35 35"><path d="M33.5 35h-32c-.4 0-.8-.2-1.1-.4-.2-.3-.4-.7-.4-1.1V11.3c0-.1.1-.3.1-.4.1-.1.2-.1.4-.1h34c.1 0 .3.1.4.1.1.1.1.2.1.4v22.2c0 .4-.2.8-.4 1.1s-.7.4-1.1.4zM1 11.8v21.7c0 .1.1.3.1.4.1 0 .3.1.4.1h32c.1 0 .3-.1.4-.1s.1-.2.1-.4V11.8H1z" fill="#cb11ab"/><path d="M.5 11.8c-.1 0-.3-.1-.4-.1 0-.1-.1-.2-.1-.4V5c0-.4.2-.8.4-1.1.3-.3.7-.4 1.1-.4h5.2c.1 0 .3.1.4.1.1.1.1.3.1.4s0 .3-.1.3c-.1.1-.3.2-.4.2H1.5c-.1 0-.3.1-.4.1 0 .1-.1.3-.1.4v6.3c0 .1-.1.3-.1.4-.1.1-.3.1-.4.1zM34.5 11.8c-.1 0-.3-.1-.4-.1-.1-.1-.1-.2-.1-.4V5c0-.1-.1-.3-.1-.4-.1-.1-.2-.1-.4-.1h-5.2c-.1 0-.3-.1-.4-.1-.1-.1-.1-.2-.1-.4s.1-.3.1-.4c.1-.1.2-.1.4-.1h5.2c.4 0 .8.2 1.1.4s.4.7.4 1.1v6.3c0 .1-.1.3-.1.4-.1.1-.3.1-.4.1zM24.7 4.5H10.3c-.1 0-.3-.1-.4-.1-.1-.1-.1-.3-.1-.4s.1-.3.1-.4c.1-.1.2-.1.4-.1h14.4c.1 0 .3.1.4.1.1.1.1.2.1.4s-.1.3-.1.4c-.1 0-.3.1-.4.1z" fill="#cb11ab"/><path d="M.5 11.8c-.1 0-.3-.1-.4-.1 0-.1-.1-.2-.1-.4V5c0-.4.2-.8.4-1.1.3-.3.7-.4 1.1-.4h5.2c.1 0 .3.1.4.1.1.1.1.3.1.4s0 .3-.1.3c-.1.1-.3.2-.4.2H1.5c-.1 0-.3.1-.4.1 0 .1-.1.3-.1.4v6.3c0 .1-.1.3-.1.4-.1.1-.3.1-.4.1zM34.5 11.8c-.1 0-.3-.1-.4-.1-.1-.1-.1-.2-.1-.4V5c0-.1-.1-.3-.1-.4-.1-.1-.2-.1-.4-.1h-5.2c-.1 0-.3-.1-.4-.1-.1-.1-.1-.2-.1-.4s.1-.3.1-.4c.1-.1.2-.1.4-.1h5.2c.4 0 .8.2 1.1.4s.4.7.4 1.1v6.3c0 .1-.1.3-.1.4-.1.1-.3.1-.4.1zM24.7 4.5H10.3c-.1 0-.3-.1-.4-.1-.1-.1-.1-.3-.1-.4s.1-.3.1-.4c.1-.1.2-.1.4-.1h14.4c.1 0 .3.1.4.1.1.1.1.2.1.4s-.1.3-.1.4c-.1 0-.3.1-.4.1z" fill="#cb11ab"/><path d="M26.5 8c-.6 0-1.2-.2-1.6-.7-.4-.4-.7-1-.7-1.6V2.3c0-.6.2-1.2.7-1.6.4-.4 1-.7 1.6-.7s1.2.2 1.6.7c.4.4.7 1 .7 1.6v3.4c0 .6-.2 1.2-.7 1.6-.4.4-1 .7-1.6.7zm0-7c-.3 0-.7.1-.9.4-.2.2-.4.6-.4.9v3.4c0 .2 0 .3.1.5s.2.3.3.4c.1.1.3.2.4.3.2.1.3.1.5.1s.3 0 .5-.1.3-.2.4-.3c.1-.1.2-.3.3-.4.1-.2.1-.3.1-.5V2.3c0-.3-.1-.7-.4-.9-.2-.3-.6-.4-.9-.4zM8.5 8c-.6 0-1.2-.3-1.6-.7-.4-.4-.7-1-.7-1.6V2.3c0-.3.1-.6.2-.9.1-.3.3-.5.5-.7.2-.2.5-.4.7-.5.3-.1.6-.2.9-.2.3 0 .6.1.9.2.3.1.5.3.7.5s.4.5.5.7c.1.3.2.6.2.9v3.4c0 .6-.2 1.2-.7 1.6-.4.4-1 .7-1.6.7zm0-7c-.3 0-.7.1-.9.4-.3.2-.4.5-.4.9v3.4c0 .3.1.7.4.9.2.2.6.4.9.4.3 0 .7-.1.9-.4.3-.2.4-.6.4-.9V2.3c0-.3-.1-.7-.4-.9-.2-.3-.6-.4-.9-.4zM29.6 18.9h-2.5c-.3 0-.5-.1-.7-.3s-.3-.4-.3-.7v-2c0-.3.1-.5.3-.7.2-.2.4-.3.7-.3h2.5c.3 0 .5.1.7.3.2.2.3.4.3.7v2c0 .3-.1.5-.3.7s-.4.3-.7.3zm-2.5-3v2h2.5v-2h-2.5zM22.4 18.9h-2.5c-.3 0-.5-.1-.7-.3-.2-.2-.3-.4-.3-.7v-2c0-.3.1-.5.3-.7.2-.2.4-.3.7-.3h2.5c.3 0 .5.1.7.3.2.2.3.4.3.7v2c0 .3-.1.5-.3.7-.2.2-.5.3-.7.3zm-2.5-3v2h2.5v-2h-2.5zM15.1 18.9h-2.5c-.3 0-.5-.1-.7-.3-.2-.2-.3-.4-.3-.7v-2c0-.3.1-.5.3-.7.2-.2.4-.3.7-.3h2.5c.3 0 .5.1.7.3.2.2.3.4.3.7v2c0 .3-.1.5-.3.7-.2.2-.4.3-.7.3zm-2.5-3v2h2.5v-2h-2.5zM29.6 24.9h-2.5c-.3 0-.5-.1-.7-.3s-.3-.4-.3-.7v-2c0-.3.1-.5.3-.7.2-.2.4-.3.7-.3h2.5c.3 0 .5.1.7.3.2.2.3.4.3.7v2c0 .3-.1.5-.3.7s-.4.3-.7.3zm-2.5-3v2h2.5v-2h-2.5zM22.4 24.9h-2.5c-.3 0-.5-.1-.7-.3-.2-.2-.3-.4-.3-.7v-2c0-.3.1-.5.3-.7.2-.2.4-.3.7-.3h2.5c.3 0 .5.1.7.3.2.2.3.4.3.7v2c0 .3-.1.5-.3.7-.2.2-.5.3-.7.3zm-2.5-3v2h2.5v-2h-2.5zM15.1 24.9h-2.5c-.3 0-.5-.1-.7-.3-.2-.2-.3-.4-.3-.7v-2c0-.3.1-.5.3-.7.2-.2.4-.3.7-.3h2.5c.3 0 .5.1.7.3.2.2.3.4.3.7v2c0 .3-.1.5-.3.7-.2.2-.4.3-.7.3zm-2.5-3v2h2.5v-2h-2.5zM7.9 24.9H5.4c-.3 0-.5-.1-.7-.3-.2-.2-.3-.4-.3-.7v-2c0-.3.1-.5.3-.7.2-.2.4-.3.7-.3h2.5c.3 0 .5.1.7.3.2.2.3.4.3.7v2c0 .3-.1.5-.3.7s-.5.3-.7.3zm-2.5-3v2h2.5v-2H5.4zM22.4 30.9h-2.5c-.3 0-.5-.1-.7-.3-.2-.2-.3-.4-.3-.7v-2c0-.3.1-.5.3-.7.2-.2.4-.3.7-.3h2.5c.3 0 .5.1.7.3.2.2.3.4.3.7v2c0 .3-.1.5-.3.7-.2.2-.5.3-.7.3zm-2.5-3v2h2.5v-2h-2.5zM15.1 30.9h-2.5c-.3 0-.5-.1-.7-.3-.2-.2-.3-.4-.3-.7v-2c0-.3.1-.5.3-.7.2-.2.4-.3.7-.3h2.5c.3 0 .5.1.7.3.2.2.3.4.3.7v2c0 .3-.1.5-.3.7-.2.2-.4.3-.7.3zm-2.5-3v2h2.5v-2h-2.5zM7.9 30.9H5.4c-.3 0-.5-.1-.7-.3-.2-.2-.3-.4-.3-.7v-2c0-.3.1-.5.3-.7.2-.2.4-.3.7-.3h2.5c.3 0 .5.1.7.3.2.2.3.4.3.7v2c0 .3-.1.5-.3.7s-.5.3-.7.3zm-2.5-3v2h2.5v-2H5.4z" fill="#cb11ab"/></svg>