<svg xmlns="http://www.w3.org/2000/svg" viewBox="0 0 22.5 29.4"><path d="M22.5 29.4H0V0h16.4l6.1 6.1v23.3zM.9 28.5h20.8V6.4L16 .9H.9v27.6z" fill="#cb11ab"/><path d="M22.1 6.7h-6.3V.4h.9v5.4h5.4v.9zM3.7 3.5h10.2v.9H3.7v-.9zM3.7 8.7h13.2v.9H3.7v-.9zM3.7 13.4h15.1v.9H3.7v-.9zM3.7 18.4h7.8v.9H3.7v-.9zM3.7 23.4h7.8v.9H3.7v-.9zM16.4 22.5c-.6 0-1.3-.2-1.8-.5-.5-.4-.9-.9-1.2-1.4-.2-.6-.3-1.2-.2-1.9.1-.6.4-1.2.9-1.7s1-.8 1.7-.9c.6-.1 1.3-.1 1.9.2.6.2 1.1.7 1.4 1.2.4.5.5 1.2.5 1.8 0 .9-.3 1.7-.9 2.3-.6.5-1.4.9-2.3.9zm0-5.6c-.5 0-.9.1-1.3.4-.4.3-.7.6-.9 1.1-.2.4-.2.9-.1 1.4.1.5.3.9.6 1.2.3.3.8.6 1.2.6.5.1.9 0 1.4-.1.4-.2.8-.5 1.1-.9s.4-.8.4-1.3c0-.6-.2-1.2-.7-1.7-.4-.4-1-.7-1.7-.7z" fill="#cb11ab"/><path d="M18.2 26.4c-.1 0-.2 0-.3-.1l-1.5-1.1-1.4 1.1c-.1 0-.1.1-.2.1h-.2c-.1 0-.1-.1-.2-.2 0-.1-.1-.1-.1-.2v-4.5c0-.1 0-.2.1-.3s.2-.1.3-.1c.1 0 .2 0 .3.1s.1.2.1.3v3.6l1-.8c.1-.1.2-.1.3-.1.1 0 .2 0 .3.1l1 .8v-3.6c0-.1 0-.2.1-.3.1-.1.2-.1.3-.1.1 0 .2 0 .3.1.1.1.1.2.1.3V26c0 .1 0 .2-.1.3 0 0-.1.1-.2.1z" fill="#cb11ab"/></svg>