<svg xmlns="http://www.w3.org/2000/svg" viewBox="0 0 35.9 35.7"><path d="M18 35.7c-.1 0-.3-.1-.4-.2-.1-.1-.2-.2-.2-.4V15.6c0-.1 0-.2.1-.3.1-.1.1-.2.2-.2l17.5-7.3h.2c.1 0 .2 0 .2.1.1 0 .1.1.2.2 0 .1.1.2.1.2v20.2c0 .1 0 .2-.1.3s-.1.2-.2.2l-17.5 6.7H18zm.5-19.8v18.6l16.4-6.4V9l-16.4 6.9z" fill="#cb11ab"/><path d="M18 35.7h-.2L.3 28.9c-.1 0-.2-.1-.2-.2-.1 0-.1-.1-.1-.2V8.2c0-.1 0-.1.1-.2 0-.1.1-.1.2-.2.1 0 .2-.1.2-.1h.2L18.2 15c.1 0 .2.1.2.2.1.1.1.2.1.3v19.7c0 .1-.1.3-.2.4-.1.1-.2.1-.3.1zM1 28.1l16.4 6.4V15.9L1 9v19.1z" fill="#cb11ab"/><path d="M35.4 8.7h-.2L18 1.1.7 8.7H.3c-.1-.1-.2-.2-.2-.3C0 8.3 0 8.2.1 8c0-.1.1-.2.3-.3L17.8 0h.4l17.5 7.7c.1 0 .2.1.3.2.1.1.1.2 0 .3 0 .1-.1.2-.2.3-.1.2-.2.2-.4.2z" fill="#cb11ab"/><path d="M9.3 12.4c-.1 0-.2 0-.3-.1-.1-.1-.2-.2-.2-.3v-.3c0-.1.1-.2.2-.2l16-8.2c.1-.1.3-.1.4 0 .1 0 .2.1.3.3s.1.3 0 .4c0 .1-.1.2-.2.3l-16 8.2c-.1-.1-.2-.1-.2-.1zM9.9 17.1h-.2L6 15.6c-.1 0-.2-.1-.3-.3-.1-.1-.1-.3 0-.4 0-.1.1-.2.3-.3.1-.1.3-.1.4 0l3.7 1.4c.1 0 .2.1.3.2.1.1.1.2.1.3 0 .1-.1.2-.2.3-.1.2-.3.3-.4.3z" fill="#cb11ab"/></svg>