<svg xmlns="http://www.w3.org/2000/svg" viewBox="0 0 35.6 30"><path d="M31.6 10.8c0-.1-.1-.1-.2-.1s-.1-.1-.2-.1-.1 0-.2.1c-.1 0-.1.1-.2.1L27 16.7c0 .1-.1.1-.1.2s0 .2.1.2c0 .1.1.1.2.2.1 0 .1.1.2.1h3.3c-.5 3.3-2.1 6.3-4.6 8.5-2.4 2.1-5.4 3.2-8.3 3.2-1.9 0-3.8-.5-5.6-1.5-1.9-1-3.5-2.4-4.8-4.1l-.1-.1s-.1-.1-.2-.1h-.2c-.1 0-.1 0-.2.1l-.1.1s0 .1-.1.2v.2c0 .1 0 .1.1.2 1.3 1.8 3.1 3.3 5.1 4.4 1.9 1 4 1.5 6 1.5 3.1 0 6.3-1.2 8.8-3.4 2.7-2.3 4.5-5.6 5-9.2h3.6c.1 0 .2 0 .2-.1.1 0 .1-.1.2-.2 0-.1.1-.1.1-.2s0-.2-.1-.2l-3.9-5.9zm-3.4 5.7l3.1-4.7 3.1 4.7h-6.2zM8.6 12.8c0-.1-.1-.1-.2-.2-.1 0-.1-.1-.2-.1H4.9C5.3 9.3 7 6.3 9.5 4.1 11.9 2 14.9.9 17.8.9c1.9 0 3.8.5 5.6 1.5 1.9 1 3.5 2.4 4.8 4.1l.1.1s.1.1.2.1h.2c.1 0 .1 0 .2-.1l.1-.1s0-.1.1-.2v-.2l-.2-.2c-1.3-1.8-3.1-3.3-5.1-4.4-1.9-1-4-1.5-6-1.5-3.1 0-6.3 1.3-8.8 3.4C6.2 5.8 4.5 9 4 12.6H.4c-.1 0-.2 0-.2.1-.1 0-.1.1-.2.2v.2c0 .1 0 .2.1.2L4 19.2c0 .1.1.1.2.1s.1.1.2.1.1 0 .2-.1c.1 0 .1-.1.2-.1l3.9-5.9c0-.1.1-.1.1-.2-.2-.1-.2-.2-.2-.3zm-4.3 5.4l-3.1-4.7h6.2l-3.1 4.7z" fill="#cb11ab"/><path d="M18 4.9h-.4L9.9 8.7c-.1 0-.1.1-.2.2 0 .1-.1.1-.1.2v7.2c0 1.9 1.2 4.2 2.7 5.2l5.1 3.5c.1 0 .2.1.2.1.1 0 .2 0 .2-.1l5.1-3.5c1.5-1.1 2.7-3.3 2.7-5.2V9.1c0-.1 0-.2-.1-.2 0-.1-.1-.1-.2-.2L18 4.9zm7 11.4c0 1.6-1.1 3.6-2.4 4.5l-4.9 3.3-4.9-3.3c-1.3-.9-2.4-2.9-2.4-4.5V9.4l7.2-3.6L25 9.4v6.9z" fill="#cb11ab"/><path d="M14.8 14.4l-.1-.1h-.4c-.1 0-.1.1-.1.1l-.1.1v.4c0 .1.1.1.1.1l2.3 2.3c.1.1.2.1.3.1s.2 0 .3-.1l4.2-4.1c.1-.1.1-.2.1-.3 0-.1 0-.2-.1-.3s-.2-.1-.3-.1c-.1 0-.2 0-.3.1l-3.9 3.8-2-2z" fill="#cb11ab"/></svg>