<svg xmlns="http://www.w3.org/2000/svg" viewBox="0 0 35.5 31.9"><path d="M30 31.9H2.1c-.6 0-1.1-.2-1.5-.6-.4-.5-.6-1-.6-1.6V3.9c0-.1.1-.3.2-.4.1-.1.2-.2.4-.2.1 0 .3.1.4.2v26.2c0 .3.1.6.3.8.2.2.5.3.8.3H30c.3 0 .6-.1.8-.3.2-.2.3-.5.3-.8v-7c0-.1.1-.3.2-.4.1-.1.2-.2.4-.2s.3.1.4.2c.1.1.2.2.2.4v7c0 .6-.2 1.1-.6 1.5-.6.4-1.2.7-1.7.7z" fill="#cb11ab"/><path d="M31.6 16.9c-.1 0-.3-.1-.4-.2-.1-.1-.2-.2-.2-.4V8.9c0-.3-.1-.6-.3-.8-.2-.2-.5-.3-.8-.3H3.6c-.1 0-.3-.1-.4-.2-.1 0-.1-.1-.1-.3s0-.2.1-.3c.1-.1.2-.2.4-.2H30c.6 0 1.1.2 1.5.6.4.4.6.9.6 1.5v7.5c0 .1-.1.3-.2.4-.1.1-.2.1-.3.1z" fill="#cb11ab"/><path d="M27.8 7.8h-24c-1 0-2-.4-2.7-1.1C.4 6 0 5 0 4v-.2c0-1 .4-2 1.1-2.7C1.8.4 2.8 0 3.8 0h22.1c.6 0 1.3.3 1.7.7.5.5.7 1.1.7 1.7V7.5c0 .1-.1.1-.1.2 0 0-.1.1-.2.1h-.2zM3.8 1c-.7 0-1.4.3-2 .8-.5.6-.8 1.3-.8 2V4c0 .7.3 1.4.8 2 .5.5 1.2.8 2 .8h23.5V2.4c0-.4-.1-.7-.4-1-.3-.3-.6-.4-1-.4H3.8zM33.4 23.3H28c-.7 0-1.4-.2-2-.6-.6-.4-1.1-1-1.4-1.6-.3-.7-.4-1.4-.2-2.1.1-.7.5-1.4 1-1.9.3-.3.7-.6 1.2-.8.4-.2.9-.3 1.4-.3h5.8c.1 0 .2 0 .3-.1.1 0 .2-.1.3-.2.1-.1.2-.3.2-.6 0-.1.1-.3.2-.4.1-.1.2-.2.4-.2s.3.1.4.2c.1.1.2.2.2.4v6c0 .6-.2 1.1-.6 1.5-.7.5-1.3.7-1.8.7zm-5.5-6.4a2.732 2.732 0 00-2.7 2.7 2.732 2.732 0 002.7 2.7h5.4c.3 0 .6-.1.8-.3.2-.2.3-.5.3-.8v-4.4c-.2.1-.5.2-.8.2h-5.7z" fill="#cb11ab"/><path d="M33.7 16.9h-2.1c-.1 0-.3-.1-.4-.2-.1-.1-.2-.2-.2-.4v-2.6c0-.1.1-.3.2-.4.1-.1.2-.2.4-.2h2.1c.5 0 .9.2 1.3.5.3.3.5.8.5 1.3s-.2.9-.5 1.3c-.4.6-.8.7-1.3.7zm-1.6-1h1.6c.1 0 .2 0 .3-.1.1 0 .2-.1.3-.2.1-.1.2-.2.2-.4v-.5c-.1-.1-.2-.3-.3-.4-.1-.1-.3-.1-.4-.1h-1.6v1.7zM28.2 21.2c-.3 0-.6-.1-.9-.3-.3-.2-.5-.4-.6-.7-.1-.3-.2-.6-.1-1 .1-.3.2-.6.5-.8.2-.2.5-.4.8-.5.3-.1.7 0 1 .1.3.1.6.3.7.6.2.3.3.6.3.9 0 .4-.2.9-.5 1.2-.4.3-.8.5-1.2.5zm0-2.3c-.1 0-.2 0-.3.1-.1.1-.2.2-.2.3 0 .1-.1.2 0 .4 0 .1.1.2.2.3s.2.1.3.2h.4c.1 0 .2-.1.3-.2.1-.1.1-.2.1-.3 0-.2-.1-.3-.2-.4-.3-.3-.5-.4-.6-.4z" fill="#cb11ab"/></svg>